<svg width="90" height="57" viewBox="0 0 90 57" fill="none" xmlns="http://www.w3.org/2000/svg">
<path d="M4.1 31.833H1V56.033H4.1V31.833Z" fill="black"/>
<path d="M48.4 33.9328C46.1 31.7328 43.9 30.6328 41.7 30.6328C39.8 30.6328 38.2 31.2328 37 32.4328C35.7 33.6328 35.1 35.2328 35.1 37.0328C35.1 38.4328 35.5 39.7328 36.3 40.8328C37.1 41.9328 38.6 43.0328 40.7 44.2328C42.7 45.3328 44 46.1328 44.6 46.8328C45.2 47.5328 45.5 48.3328 45.5 49.2328C45.5 50.3328 45.1 51.2328 44.2 52.0328C43.3 52.8328 42.3 53.2328 41 53.2328C39.2 53.2328 37.5 52.3328 36 50.5328L34 52.7328C34.8 53.8328 35.9 54.6328 37.1 55.2328C38.4 55.8328 39.7 56.1328 41.1 56.1328C43.2 56.1328 44.9 55.4328 46.3 54.0328C47.7 52.6328 48.4 50.9328 48.4 48.9328C48.4 47.5328 48 46.2328 47.2 45.1328C46.4 44.0328 44.8 42.8328 42.5 41.6328C40.6 40.6328 39.4 39.8328 38.8 39.0328C38.2 38.3328 37.9 37.5328 37.9 36.8328C37.9 35.9328 38.3 35.1328 39 34.4328C39.7 33.7328 40.6 33.4328 41.6 33.4328C43.3 33.4328 44.8 34.3328 46.5 35.8328L48.4 33.9328Z" fill="black"/>
<path d="M71.2001 31.833H68.1001V56.033H71.2001V31.833Z" fill="black"/>
<path d="M80.2001 22.5332H77.1001V56.0332H80.2001V22.5332Z" fill="black"/>
<path d="M89.3002 22.5332H86.2002V56.0332H89.3002V22.5332Z" fill="black"/>
<path d="M20.1 30.6328C14.4 30.6328 9.80005 35.2328 9.80005 40.9328V55.9328H13V40.9328C13 37.0328 16.2 33.8328 20.1 33.8328C24 33.8328 27.2001 37.0328 27.2001 40.9328V55.9328H30.4V40.9328C30.4 35.3328 25.8 30.6328 20.1 30.6328Z" fill="black"/>
<path d="M55.9001 36.7326H61.6V34.0326H55.9001V22.4326H52.8V48.1326C52.8 52.6326 56.4001 56.2326 60.9001 56.2326C62.0001 56.2326 63.1 56.0326 64.1 55.5326L63 52.6326C62.4 52.9326 61.6001 53.1326 60.9001 53.1326C58.2001 53.1326 55.9001 50.9326 55.9001 48.1326V36.7326Z" fill="black"/>
<path d="M71.9846 25.4922C72.5341 24.1655 71.9041 22.6446 70.5775 22.095C69.2508 21.5455 67.7299 22.1755 67.1803 23.5022C66.6308 24.8288 67.2608 26.3498 68.5874 26.8993C69.9141 27.4489 71.4351 26.8189 71.9846 25.4922Z" fill="black"/>
<path d="M4.93773 25.4258C5.48726 24.0991 4.85727 22.5782 3.53061 22.0286C2.20394 21.4791 0.682982 22.1091 0.133448 23.4358C-0.416087 24.7624 0.213903 26.2834 1.54057 26.8329C2.86723 27.3824 4.38819 26.7525 4.93773 25.4258Z" fill="black"/>
<path d="M65.7779 6.26671C65.4445 5.93338 65.1112 5.48893 64.7779 5.1556C64.4445 4.82227 64.1112 4.48893 63.7779 4.1556C63.4445 3.82227 63.1112 3.60004 62.7779 3.26671C62.4445 3.04449 62.1112 2.82227 61.7779 2.48893C61.4445 2.26671 61.0001 2.04449 60.5556 1.82227C60.1112 1.60005 59.7779 1.48893 59.3334 1.26671C58.889 1.1556 58.4445 1.04449 58.0001 0.933375C57.5556 0.822264 57.1112 0.822266 56.6667 0.822266C56.2223 0.822266 55.889 0.822266 55.4445 0.822266C55.0001 0.822266 54.5556 0.933378 54.2223 1.04449C53.7779 1.1556 53.4445 1.1556 53.0001 1.37782C52.5556 1.48893 52.1112 1.60004 51.6667 1.71115C51.2223 1.82226 50.889 2.04449 50.4445 2.1556C50.0001 2.37782 49.5556 2.48893 49.1112 2.71116C48.7779 2.82227 48.3334 3.04449 48.0001 3.1556C47.5556 3.37782 47.2223 3.48893 46.7779 3.71115C46.4445 3.82226 46.1112 4.04449 45.7779 4.26671C45.4445 4.48893 45.1112 4.60004 44.7779 4.82226C44.4445 5.04449 44.0001 5.1556 43.6667 5.37782C43.3334 5.60004 43.0001 5.71115 42.6667 5.93338C42.3334 6.1556 42.1112 6.26671 41.7779 6.48893C41.4445 6.71115 41.2223 6.82226 40.889 7.04449C40.5556 7.26671 40.3334 7.37782 40.0001 7.48893C39.6667 7.60004 39.4445 7.82227 39.1112 7.93338C38.7779 8.04449 38.5556 8.26671 38.2223 8.37782C37.889 8.48893 37.6667 8.60004 37.3334 8.82227C37.0001 8.93338 36.7779 9.04449 36.4445 9.26671C36.1112 9.37782 35.7779 9.48893 35.5556 9.71115C35.1112 9.93338 34.6667 10.0445 34.3334 10.2667C33.889 10.3778 33.5556 10.6 33.1112 10.7112C32.7779 10.8223 32.4445 10.9334 32.1112 11.0445C31.6667 11.1556 31.2223 11.2667 30.6667 11.3778C30.2223 11.4889 29.7779 11.4889 29.2223 11.6C28.7779 11.6 28.3334 11.7112 27.889 11.7112C27.4445 11.7112 27.0001 11.7112 26.5556 11.7112C26.2223 11.7112 25.889 11.7112 25.4445 11.6C25.0001 11.4889 24.6667 11.4889 24.2223 11.3778C23.7779 11.2667 23.2223 11.1556 22.7779 10.9334C22.4445 10.8223 22.0001 10.6 21.6667 10.4889C21.7779 10.4889 21.7779 10.6 21.889 10.7112C22.2223 11.0445 22.6667 11.2667 23.1112 11.6C23.5556 11.8223 24.0001 12.0445 24.5556 12.2667C25.1112 12.4889 25.6667 12.6 26.1112 12.8223C26.5556 12.9334 27.1112 13.0445 27.5556 13.1556C28.1112 13.2667 28.5556 13.2667 29.1112 13.2667C29.6667 13.2667 30.1112 13.2667 30.6667 13.2667C31.2223 13.2667 31.7779 13.1556 32.3334 13.1556C32.6667 13.1556 33.1112 13.0445 33.4445 13.0445C33.889 12.9334 34.2223 12.9334 34.6667 12.8223C35.3334 12.7112 36.0001 12.6 36.6667 12.3778C37.1112 12.2667 37.5556 12.1556 38.0001 12.0445C38.3334 11.9334 38.7779 11.8223 39.1112 11.8223C39.4445 11.7112 39.889 11.6 40.2223 11.4889C40.7779 11.2667 41.4445 11.1556 42.0001 10.9334C42.5556 10.7112 43.1112 10.6 43.6667 10.4889C44.2223 10.3778 44.7779 10.1556 45.3334 10.0445C45.6667 9.93338 46.0001 9.82227 46.4445 9.71115C46.7779 9.60004 47.1112 9.48893 47.4445 9.37782C47.7779 9.26671 48.1112 9.1556 48.4445 9.1556C48.7779 9.04449 49.1112 9.04449 49.4445 8.93338C49.6667 8.71115 50.0001 8.60004 50.2223 8.60004C50.5556 8.48893 50.7779 8.48893 51.1112 8.37782C51.4445 8.26671 51.6667 8.26671 52.0001 8.1556C52.3334 8.1556 52.5556 8.04449 52.889 7.93338C53.3334 7.82227 53.6668 7.82227 54.1112 7.71116C54.5556 7.60004 54.889 7.60004 55.3334 7.48893C55.5556 7.48893 55.889 7.37782 56.1112 7.37782C56.5556 7.26671 57.1112 7.26671 57.5556 7.26671C57.889 7.26671 58.3334 7.1556 58.6667 7.1556C59.1112 7.1556 59.6667 7.1556 60.1112 7.1556C60.4445 7.1556 60.889 7.1556 61.2223 7.1556C61.6667 7.1556 62.2223 7.26671 62.6668 7.26671C63.1112 7.37782 63.6668 7.37782 64.1112 7.48893C64.5556 7.60004 65.0001 7.60004 65.4445 7.82227C66.0001 7.93338 66.5556 8.1556 67.1112 8.26671C66.889 7.93338 66.6668 7.48893 66.3334 7.1556C66.2223 6.93338 66.0001 6.60005 65.7779 6.26671Z" fill="url(#paint0_linear)"/>
<defs>
<linearGradient id="paint0_linear" x1="21.7195" y1="6.97918" x2="72.3862" y2="6.97918" gradientUnits="userSpaceOnUse">
<stop stop-color="#08A6F7"/>
<stop offset="1" stop-color="#63F4F9"/>
</linearGradient>
</defs>
</svg>
