<svg width="139" height="86" viewBox="0 0 139 86" fill="none" xmlns="http://www.w3.org/2000/svg">
<g clip-path="url(#clip0)">
<path d="M6.607 47.9526H1.81641V85.1497H6.607V47.9526Z" fill="white"/>
<path d="M75.0656 51.1805C71.5113 47.7989 68.1115 46.1082 64.7117 46.1082C61.7755 46.1082 59.303 47.0304 57.4486 48.8749C55.4396 50.7194 54.5124 53.1787 54.5124 55.9454C54.5124 58.0973 55.1305 60.0955 56.3668 61.7863C57.6031 63.4771 59.9211 65.1678 63.1664 67.0123C66.2571 68.7031 68.266 69.9327 69.1932 71.0087C70.1204 72.0846 70.5841 73.3143 70.5841 74.6977C70.5841 76.3884 69.9659 77.7718 68.5751 79.0015C67.1843 80.2311 65.6389 80.8459 63.63 80.8459C60.8483 80.8459 58.2212 79.4626 55.9032 76.6959L52.8125 80.0774C54.0488 81.7682 55.7487 82.9978 57.6031 83.9201C59.6121 84.8423 61.621 85.3035 63.7845 85.3035C67.0297 85.3035 69.6568 84.2275 71.8203 82.0756C73.9838 79.9237 75.0656 77.3107 75.0656 74.2365C75.0656 72.0846 74.4474 70.0865 73.2112 68.3957C71.9749 66.7049 69.5023 64.8604 65.948 63.0159C63.0118 61.4789 61.1574 60.2492 60.2302 59.0195C59.303 57.9436 58.8394 56.7139 58.8394 55.638C58.8394 54.2546 59.4575 53.025 60.5393 51.949C61.621 50.8731 63.0118 50.412 64.5572 50.412C67.1843 50.412 69.5023 51.7953 72.1294 54.1009L75.0656 51.1805Z" fill="white"/>
<path d="M110.3 47.9526H105.51V85.1497H110.3V47.9526Z" fill="white"/>
<path d="M124.209 33.658H119.418V85.1498H124.209V33.658Z" fill="white"/>
<path d="M138.271 33.658H133.48V85.1498H138.271V33.658Z" fill="white"/>
<path d="M31.3331 46.1082C22.5246 46.1082 15.416 53.1787 15.416 61.94V84.996H20.3611V61.94C20.3611 55.9454 25.3063 51.0268 31.3331 51.0268C37.36 51.0268 42.3052 55.9454 42.3052 61.94V84.996H47.2503V61.94C47.2503 53.3324 40.1417 46.1082 31.3331 46.1082Z" fill="white"/>
<path d="M86.6558 55.4843H95.4643V51.3342H86.6558V33.5042H81.8652V73.0069C81.8652 79.9237 87.4285 85.4571 94.3826 85.4571C96.0825 85.4571 97.7824 85.1497 99.3277 84.3812L97.6278 79.9237C96.7006 80.3848 95.4643 80.6922 94.3826 80.6922C90.2101 80.6922 86.6558 77.3107 86.6558 73.0069V55.4843Z" fill="white"/>
<path d="M111.513 38.2067C112.362 36.1675 111.388 33.8297 109.338 32.985C107.288 32.1403 104.938 33.1087 104.088 35.1478C103.239 37.187 104.213 39.5248 106.263 40.3695C108.313 41.2142 110.664 40.2458 111.513 38.2067Z" fill="white"/>
<path d="M7.90142 38.1036C8.75064 36.0645 7.77709 33.7266 5.72692 32.882C3.67676 32.0373 1.32633 33.0056 0.47711 35.0448C-0.372114 37.084 0.601441 39.4218 2.65161 40.2665C4.70177 41.1112 7.05219 40.1428 7.90142 38.1036Z" fill="white"/>
<path d="M101.921 8.65487C101.406 8.14252 100.891 7.45938 100.376 6.94702C99.8607 6.43466 99.3455 5.9223 98.8304 5.40995C98.3153 4.89759 97.8002 4.55602 97.2851 4.04366C96.77 3.70209 96.2548 3.36052 95.7397 2.84816C95.2246 2.50659 94.5378 2.16502 93.851 1.82345C93.1641 1.48188 92.649 1.31109 91.9622 0.969522C91.2754 0.798736 90.5885 0.627946 89.9017 0.45716C89.2149 0.286374 88.5281 0.286377 87.8412 0.286377C87.1544 0.286377 86.6393 0.286377 85.9525 0.286377C85.2657 0.286377 84.5788 0.457164 84.0637 0.62795C83.3769 0.798735 82.8618 0.798734 82.175 1.14031C81.4881 1.31109 80.8013 1.48187 80.1145 1.65266C79.4277 1.82345 78.9125 2.16502 78.2257 2.33581C77.5389 2.67738 76.8521 2.84816 76.1652 3.18973C75.6501 3.36052 74.9633 3.70209 74.4482 3.87287C73.7614 4.21444 73.2463 4.38523 72.5594 4.7268C72.0443 4.89759 71.5292 5.23916 71.0141 5.58073C70.499 5.9223 69.9838 6.09309 69.4687 6.43466C68.9536 6.77623 68.2668 6.94701 67.7517 7.28858C67.2365 7.63016 66.7214 7.80094 66.2063 8.14251C65.6912 8.48408 65.3478 8.65487 64.8327 8.99644C64.3175 9.33801 63.9741 9.5088 63.459 9.85037C62.9439 10.1919 62.6005 10.3627 62.0854 10.5335C61.5703 10.7043 61.2268 11.0459 60.7117 11.2167C60.1966 11.3874 59.8532 11.729 59.3381 11.8998C58.823 12.0706 58.4795 12.2414 57.9644 12.5829C57.4493 12.7537 57.1059 12.9245 56.5908 13.2661C56.0757 13.4369 55.5605 13.6077 55.2171 13.9492C54.5303 14.2908 53.8435 14.4616 53.3284 14.8032C52.6415 14.9739 52.1264 15.3155 51.4396 15.4863C50.9245 15.6571 50.4094 15.8279 49.8943 15.9987C49.2074 16.1694 48.5206 16.3402 47.6621 16.511C46.9753 16.6818 46.2884 16.6818 45.4299 16.8526C44.7431 16.8526 44.0563 17.0234 43.3694 17.0234C42.6826 17.0234 41.9958 17.0234 41.309 17.0234C40.7938 17.0234 40.2787 17.0234 39.5919 16.8526C38.9051 16.6818 38.39 16.6818 37.7031 16.511C37.0163 16.3402 36.1578 16.1694 35.471 15.8279C34.9558 15.6571 34.269 15.3155 33.7539 15.1447C33.9256 15.1447 33.9256 15.3155 34.0973 15.4863C34.6124 15.9987 35.2993 16.3402 35.9861 16.8526C36.6729 17.1942 37.3597 17.5357 38.2183 17.8773C39.0768 18.2189 39.9353 18.3897 40.6221 18.7312C41.309 18.902 42.1675 19.0728 42.8543 19.2436C43.7128 19.4144 44.3997 19.4144 45.2582 19.4144C46.1167 19.4144 46.8036 19.4144 47.6621 19.4144C48.5206 19.4144 49.3791 19.2436 50.2377 19.2436C50.7528 19.2436 51.4396 19.0728 51.9547 19.0728C52.6415 18.902 53.1567 18.902 53.8435 18.7312C54.8737 18.5604 55.904 18.3897 56.9342 18.0481C57.621 17.8773 58.3078 17.7065 58.9947 17.5357C59.5098 17.3649 60.1966 17.1942 60.7117 17.1942C61.2268 17.0234 61.9137 16.8526 62.4288 16.6818C63.2873 16.3402 64.3175 16.1694 65.1761 15.8279C66.0346 15.4863 66.8931 15.3155 67.7517 15.1447C68.6102 14.9739 69.4687 14.6324 70.3272 14.4616C70.8424 14.2908 71.3575 14.12 72.0443 13.9492C72.5594 13.7784 73.0745 13.6077 73.5897 13.4369C74.1048 13.2661 74.6199 13.0953 75.135 13.0953C75.6501 12.9245 76.1652 12.9245 76.6804 12.7537C77.0238 12.4122 77.5389 12.2414 77.8823 12.2414C78.3974 12.0706 78.7408 12.0706 79.256 11.8998C79.7711 11.729 80.1145 11.729 80.6296 11.5582C81.1447 11.5582 81.4881 11.3874 82.0033 11.2167C82.6901 11.0459 83.2052 11.0459 83.892 10.8751C84.5788 10.7043 85.094 10.7043 85.7808 10.5335C86.1242 10.5335 86.6393 10.3627 86.9827 10.3627C87.6695 10.1919 88.5281 10.1919 89.2149 10.1919C89.73 10.1919 90.4168 10.0212 90.9319 10.0212C91.6188 10.0212 92.4773 10.0212 93.1641 10.0212C93.6792 10.0212 94.3661 10.0212 94.8812 10.0212C95.568 10.0212 96.4265 10.1919 97.1134 10.1919C97.8002 10.3627 98.6587 10.3627 99.3455 10.5335C100.032 10.7043 100.719 10.7043 101.406 11.0459C102.265 11.2167 103.123 11.5582 103.982 11.729C103.638 11.2167 103.295 10.5335 102.78 10.0212C102.608 9.67959 102.265 9.16723 101.921 8.65487Z" fill="url(#paint0_linear)"/>
</g>
<defs>
<linearGradient id="paint0_linear" x1="33.8355" y1="9.74998" x2="112.133" y2="9.74998" gradientUnits="userSpaceOnUse">
<stop stop-color="#08A6F7"/>
<stop offset="1" stop-color="#63F4F9"/>
</linearGradient>
<clipPath id="clip0">
<rect width="138" height="85" fill="white" transform="translate(0.271484 0.457031)"/>
</clipPath>
</defs>
</svg>
